HIERARCHY
ROOT Hips
{
     OFFSET 13.08270 94.00480 -17.40550
     CHANNELS 6 Xposition Yposition Zposition Zrotation Xrotation Yrotation
     JOINT Spine
     {
          OFFSET 0.00000 11.89050 0.00000
          CHANNELS 3 Zrotation Xrotation Yrotation
          JOINT Spine1
          {
               OFFSET -0.00000 25.65740 0.12766
               CHANNELS 3 Zrotation Xrotation Yrotation
               JOINT HEad
               {
                    OFFSET -0.00000 8.73416 0.01134
                    CHANNELS 3 Zrotation Xrotation Yrotation
                    End Site
                    {
                         OFFSET -0.29000 12.77420 2.51395
                    }
               }
               JOINT LeftShoulder1
               {
                    OFFSET 8.99000 -0.36225 -0.22000
                    CHANNELS 3 Zrotation Xrotation Yrotation
                    JOINT LeftArm
                    {
                         OFFSET 10.28270 -0.00338 0.32212
                         CHANNELS 3 Zrotation Xrotation Yrotation
                         JOINT LeftForeArm
                         {
                              OFFSET 32.76690 0.09914 -1.42434
                              CHANNELS 3 Zrotation Xrotation Yrotation
                              JOINT LeftHand
                              {
                                   OFFSET 27.56430 0.08536 1.02216
                                   CHANNELS 3 Zrotation Xrotation Yrotation
                                   End Site
                                   {
                                        OFFSET 16.74430 -0.60000 1.50291
                                   }
                              }
                         }
                    }
               }
               JOINT RightShoulder
               {
                    OFFSET -8.99000 -0.36225 -0.22000
                    CHANNELS 3 Zrotation Xrotation Yrotation
                    JOINT RightArm
                    {
                         OFFSET -10.28270 -0.00338 0.32212
                         CHANNELS 3 Zrotation Xrotation Yrotation
                         JOINT RightForeArm
                         {
                              OFFSET -32.89710 0.09914 -1.42434
                              CHANNELS 3 Zrotation Xrotation Yrotation
                              JOINT RightHand
                              {
                                   OFFSET -27.49210 0.08536 1.02216
                                   CHANNELS 3 Zrotation Xrotation Yrotation
                                   End Site
                                   {
                                        OFFSET -16.63120 -0.60000 1.50291
                                   }
                              }
                         }
                    }
               }
          }
     }
     JOINT LeftUpLeg
     {
          OFFSET 8.94580 -8.66707 0.10165
          CHANNELS 3 Zrotation Xrotation Yrotation
          JOINT LeftLeg
          {
               OFFSET 0.00000 -44.42270 1.37270
               CHANNELS 3 Zrotation Xrotation Yrotation
               JOINT LeftFoot
               {
                    OFFSET -0.25355 -42.09240 -1.46059
                    CHANNELS 3 Zrotation Xrotation Yrotation
                    JOINT LeftToes
                    {
                         OFFSET -0.04000 -4.41509 8.49910
                         CHANNELS 3 Zrotation Xrotation Yrotation
                         End Site
                         {
                              OFFSET 0.08000 -0.04745 9.77979
                         }
                    }
               }
          }
     }
     JOINT RightUpLeg
     {
          OFFSET -8.94580 -8.66707 0.10165
          CHANNELS 3 Zrotation Xrotation Yrotation
          JOINT RightLeg
          {
               OFFSET 0.00000 -44.42270 1.37270
               CHANNELS 3 Zrotation Xrotation Yrotation
               JOINT RightFoot
               {
                    OFFSET 0.25355 -42.09240 -1.46059
                    CHANNELS 3 Zrotation Xrotation Yrotation
                    JOINT RightToes
                    {
                         OFFSET 0.04000 -4.41509 8.49910
                         CHANNELS 3 Zrotation Xrotation Yrotation
                         End Site
                         {
                              OFFSET -0.08000 -0.13745 9.77979
                         }
                    }
               }
          }
     }
}
MOTION
Frames: 8
Frame Time: 0.01667
31.26310 93.39180 20.90520 -12.89870 -1.49833 -78.44670 -5.11337 10.74830 -4.64156 -0.68781 22.21300 -11.73640 -12.75180 -7.31225 40.33240 -0.00000 0.00000 -0.00000 -19.86380 -34.43410 -68.74520 -28.06300 17.19330 -77.08840 -11.14610 10.91930 -5.67211 21.25850 1.48146 3.96007 77.54910 -0.60572 72.11500 30.10220 33.42260 90.30150 22.88740 13.16820 11.52600 29.41090 9.09616 -18.64050 -34.98590 13.28250 74.40540 -7.72632 6.85908 0.92043 -1.20217 -38.80650 -60.41090 -34.39500 -5.07625 4.01648 45.84440 7.93921 -32.98070 -25.13730 19.18240 5.96654 2.71624 -22.95060 12.48060 
31.57810 93.48200 21.24690 -12.94260 -1.44998 -79.62630 -5.45140 10.89360 -4.03316 -1.03648 22.58420 -10.57540 -12.44790 -6.95586 38.12600 -0.00000 0.00000 -0.00000 -24.35460 -40.03310 -65.71900 -30.47090 20.54150 -75.86400 -9.59778 10.77570 -5.56587 20.42100 1.38166 3.71439 78.25930 -0.75042 72.27630 30.51520 33.27940 89.81730 22.63710 13.13540 11.53920 29.33610 9.28051 -18.00530 -35.56510 13.60100 74.57260 -7.44026 7.82058 0.94033 -1.56955 -39.54670 -60.78460 -34.86630 -5.42730 3.28056 45.71810 7.89965 -31.26070 -24.11780 21.11240 6.14294 2.71056 -22.61920 13.48510 
31.79710 93.51690 21.53470 -13.07100 -1.43125 -80.61050 -5.63098 11.03440 -3.38237 -1.28877 22.92710 -9.29571 -12.68620 -6.22094 36.15090 -0.00000 0.00000 -0.00000 -25.19700 -44.57320 -60.09700 -31.57160 20.59450 -75.05260 -8.67194 10.63820 -4.84868 19.63720 1.25281 3.30597 78.77890 -0.91998 72.39860 30.53330 33.06180 89.55250 22.13540 13.08010 11.61720 29.12610 9.62180 -17.66300 -35.86280 13.77280 74.81990 -7.24647 8.16491 0.93369 -1.75495 -39.97380 -60.84670 -35.49310 -5.72085 2.77882 45.83160 7.98040 -29.72240 -22.76430 23.04670 6.19402 2.76821 -22.63630 14.36510 
31.91940 93.50630 21.76970 -13.18050 -1.35691 -81.34950 -5.65007 11.12440 -2.74108 -1.36027 23.14130 -8.01863 -13.21310 -5.27287 34.62830 -0.00000 0.00000 -0.00000 -23.31480 -47.63340 -52.47370 -31.53430 18.49030 -74.90980 -8.19654 10.51160 -3.69611 18.84800 1.12699 2.88457 79.16040 -1.07062 72.43830 30.09050 32.88390 89.60170 21.45470 13.00030 11.70300 28.82800 9.95674 -17.45650 -35.85770 13.88260 75.21710 -7.03063 7.97070 0.89324 -1.83205 -40.30190 -60.56880 -36.15710 -6.02585 2.49853 46.06260 8.17484 -28.42100 -21.31350 24.78960 6.13448 2.88531 -23.01050 14.89460 
31.97050 93.48060 21.92570 -13.18550 -1.19218 -81.74440 -5.57095 11.15200 -2.13435 -1.22960 23.20650 -6.82136 -13.68530 -4.35347 33.45880 -0.00000 0.00000 -0.00000 -20.91570 -49.83690 -44.53750 -31.29350 15.98780 -75.11740 -7.97612 10.41710 -2.64211 18.03030 1.02757 2.56776 79.58220 -1.26890 72.40700 29.43870 32.85860 89.87730 20.75670 12.90620 11.73130 28.55740 10.05280 -17.28230 -35.62170 14.05950 75.76390 -6.65270 7.62423 0.82384 -1.92992 -40.76960 -60.12860 -36.78480 -6.35169 2.39045 46.30360 8.44251 -27.43940 -20.10540 26.10030 6.02611 2.98461 -23.47720 14.80360 
31.98280 93.46110 21.96470 -13.05620 -0.98833 -81.68030 -5.49205 11.13430 -1.56015 -0.95398 23.16850 -5.71805 -13.86580 -3.59672 32.30410 -0.00000 0.00000 -0.00000 -19.79570 -52.23090 -37.97630 -31.60170 14.32200 -75.39530 -7.74427 10.36840 -2.16650 17.18280 0.95801 2.38424 80.26720 -1.59003 72.36260 28.88090 33.04560 90.22240 20.19690 12.81780 11.68420 28.40300 9.72864 -17.18250 -35.27470 14.39660 76.42370 -6.05385 7.55287 0.74072 -2.18984 -41.55460 -59.86990 -37.42080 -6.61288 2.47265 46.50460 8.64363 -27.05290 -19.51180 26.73770 5.96190 2.99717 -23.78030 14.03500 
31.99500 93.41070 21.88580 -12.82700 -0.83045 -81.13380 -5.48028 11.09890 -0.97972 -0.64159 23.08910 -4.66988 -13.68860 -2.95551 30.87160 -0.00000 0.00000 -0.00000 -20.87040 -55.56380 -33.90340 -32.66310 13.97720 -75.62340 -7.18274 10.35620 -2.44868 16.33660 0.91348 2.31777 81.31760 -2.03642 72.37400 28.51570 33.41600 90.52540 19.82140 12.74860 11.59560 28.34970 8.86575 -17.22370 -34.96220 15.11110 77.15350 -5.39799 7.93133 0.66917 -2.69462 -42.69280 -60.06470 -38.19950 -6.74249 2.82617 46.65730 8.65664 -27.63410 -19.78570 26.56520 6.01470 2.91557 -23.81050 12.82350 
31.97810 93.33160 21.65740 -12.56320 -0.79561 -80.15430 -5.58828 11.05630 -0.39459 -0.40184 22.99770 -3.62805 -13.22880 -2.30050 29.13390 -0.00000 0.00000 -0.00000 -24.67390 -59.99870 -33.01810 -34.36570 14.98240 -75.72360 -6.08400 10.35060 -3.44222 15.58670 0.90099 2.40226 82.61000 -2.53788 72.48830 28.21210 33.84280 90.75740 19.58780 12.69900 11.50210 28.40680 7.68636 -17.45270 -34.72080 15.99140 77.73210 -4.75693 8.73084 0.61022 -3.40731 -44.03000 -60.71740 -39.19220 -6.58350 3.65584 46.71710 8.21213 -29.35550 -20.96490 25.60250 6.19031 2.73155 -23.36670 11.46820 
